<?xml version="1.0" standalone="no"?>
<!DOCTYPE svg PUBLIC "-//W3C//DTD SVG 20010904//EN"
 "http://www.w3.org/TR/2001/REC-SVG-20010904/DTD/svg10.dtd">
<svg version="1.0" xmlns="http://www.w3.org/2000/svg"
 width="1024.000000pt" height="1024.000000pt" viewBox="0 0 1024.000000 1024.000000"
 preserveAspectRatio="xMidYMid meet">

<g transform="translate(0.000000,1024.000000) scale(0.100000,-0.100000)"
fill="#000000" stroke="none">
<path d="M4654 8007 c-115 -79 -333 -226 -484 -328 -151 -102 -437 -295 -635
-430 -198 -134 -440 -298 -538 -364 l-179 -120 -4 -1270 c-2 -699 -1 -1278 2
-1287 5 -16 20 -18 120 -18 l114 0 0 1239 c0 1105 2 1239 15 1245 18 6 783
516 1410 938 l411 276 149 -82 c196 -108 551 -308 612 -344 26 -16 138 -80
248 -142 110 -62 245 -140 300 -173 55 -33 104 -62 109 -65 8 -5 1 482 -10
671 l-6 97 -124 0 -124 0 -2 -168 -3 -168 -200 109 c-110 60 -279 152 -375
205 -96 52 -233 127 -305 167 -199 110 -282 155 -287 155 -3 0 -99 -64 -214
-143z"/>
<path d="M4710 7450 c0 -18 7 -20 70 -20 l70 0 0 -65 c0 -47 -3 -63 -12 -60
-7 3 -40 1 -73 -4 -60 -9 -59 -9 38 -10 l97 -1 0 90 0 90 -95 0 c-88 0 -95 -1
-95 -20z"/>
<path d="M4970 7450 c0 -18 7 -20 70 -20 l70 0 0 -61 0 -61 -70 4 c-51 2 -70
0 -70 -9 0 -10 26 -13 95 -13 l95 0 0 29 c0 15 -3 56 -6 90 l-7 61 -88 0 c-82
0 -89 -2 -89 -20z"/>
<path d="M6470 7136 l0 -125 73 -46 c39 -25 144 -90 232 -144 l160 -98 3
-1131 2 -1132 -820 0 -820 0 0 -130 0 -130 133 -1 c72 0 458 -2 857 -4 399 -2
758 -1 798 2 l72 6 0 1318 0 1318 -142 87 c-130 79 -522 320 -540 331 -5 2 -8
-52 -8 -121z"/>
<path d="M5058 7213 c-75 -3 -88 -6 -88 -21 0 -15 9 -17 70 -14 l70 4 0 -69 0
-69 -70 2 c-38 1 -70 -2 -70 -7 0 -5 41 -9 90 -9 l90 0 0 95 c0 52 -1 94 -2
93 -2 -1 -42 -4 -90 -5z"/>
<path d="M4710 7195 c0 -11 17 -15 73 -17 l72 -3 3 -64 c2 -45 -1 -67 -10 -72
-8 -6 -1 -9 20 -9 l32 0 0 90 0 90 -95 0 c-77 0 -95 -3 -95 -15z"/>
<path d="M3205 6482 c-7 -7 -6 -273 1 -311 l6 -31 594 -2 593 -3 -141 -200
c-182 -259 -566 -798 -635 -895 -30 -41 -138 -191 -239 -333 l-184 -258 0
-129 0 -130 960 0 960 0 0 150 0 150 -724 2 -723 3 101 141 c118 165 257 361
533 754 110 157 268 382 352 500 84 118 156 221 158 228 5 11 -112 292 -146
352 -7 13 -100 15 -734 16 -400 1 -729 -1 -732 -4z"/>
<path d="M4892 6465 l11 -25 167 0 167 0 48 -102 c27 -57 83 -179 125 -273
136 -299 236 -517 290 -630 28 -60 58 -128 66 -150 8 -21 26 -59 41 -84 22
-38 27 -42 35 -27 6 10 8 30 5 44 -2 15 -59 144 -127 287 -67 143 -180 388
-252 545 -71 157 -146 320 -165 363 l-36 77 -193 0 -194 0 12 -25z"/>
<path d="M6417 6483 c-4 -3 -7 -15 -7 -25 0 -17 11 -18 155 -18 85 0 155 -1
155 -3 0 -2 -27 -66 -61 -143 -33 -76 -80 -184 -104 -239 -40 -93 -181 -415
-315 -720 -31 -71 -77 -175 -102 -230 -25 -55 -72 -158 -103 -230 -32 -71 -61
-134 -65 -139 -5 -4 -69 -9 -143 -9 -133 0 -135 -1 -127 -21 7 -20 16 -21 153
-24 l146 -3 20 38 c10 21 35 76 54 123 36 87 71 167 152 350 25 58 64 148 87
200 22 52 59 138 83 190 24 52 66 147 93 210 28 63 78 178 112 255 67 153 173
400 183 428 6 16 -7 17 -177 17 -100 0 -186 -3 -189 -7z"/>
<path d="M5155 4725 l-99 -95 200 0 201 0 -96 95 c-54 52 -99 95 -102 95 -2
-1 -49 -44 -104 -95z"/>
<path d="M2770 3595 l0 -65 214 -2 214 -3 -122 -151 c-334 -417 -306 -377
-306 -439 l0 -55 315 0 315 0 0 60 0 60 -225 2 -224 3 42 55 c23 30 112 143
197 250 204 256 197 245 192 303 l-4 47 -304 0 -304 0 0 -65z"/>
<path d="M3470 3655 c0 -4 14 -37 30 -75 17 -38 30 -71 30 -74 0 -4 18 -48 39
-99 22 -50 81 -190 131 -309 l92 -218 74 0 75 0 21 48 c11 26 45 102 74 170
69 157 234 549 234 557 0 3 -32 5 -71 3 -51 -2 -74 -7 -80 -18 -5 -8 -60 -140
-123 -294 -63 -153 -118 -282 -123 -287 -4 -4 -62 128 -129 294 l-121 302 -76
3 c-42 2 -77 0 -77 -3z"/>
<path d="M4710 3270 l0 -390 270 0 270 0 0 60 0 60 -200 0 -200 0 0 330 0 330
-70 0 -70 0 0 -390z"/>
<path d="M5397 3653 c-2 -5 -2 -180 1 -390 l4 -383 69 0 69 0 0 390 0 390 -69
0 c-39 0 -72 -3 -74 -7z"/>
<path d="M5740 3270 l0 -390 70 0 70 0 0 271 c0 205 3 270 12 267 6 -2 104
-123 216 -269 l203 -264 75 -3 74 -3 0 391 0 390 -70 0 -70 0 0 -275 c0 -151
-3 -275 -7 -275 -5 1 -36 38 -70 83 -104 139 -303 390 -341 430 -34 35 -39 37
-99 37 l-63 0 0 -390z"/>
<path d="M6660 3270 l0 -390 295 0 295 0 0 60 0 60 -220 0 -220 0 0 105 0 105
195 0 195 0 0 60 0 60 -195 0 -195 0 0 100 0 100 220 0 220 0 0 65 0 65 -295
0 -295 0 0 -390z"/>
<path d="M5270 2632 c-41 -20 -63 -60 -54 -98 7 -27 68 -63 109 -64 32 0 85
-37 85 -59 0 -49 -79 -65 -143 -31 -39 21 -57 19 -57 -6 0 -35 132 -58 194
-34 50 19 68 99 29 131 -8 7 -49 24 -91 38 -61 21 -78 30 -80 48 -7 45 70 68
127 38 26 -13 30 -13 42 1 15 19 4 28 -51 44 -49 14 -70 13 -110 -8z"/>
<path d="M3220 2485 c0 -148 1 -155 20 -155 14 0 20 7 20 24 0 13 3 38 6 55 6
29 9 31 49 31 39 0 44 -3 80 -55 28 -41 44 -55 61 -55 13 0 24 2 24 5 0 3 -16
27 -36 55 l-36 50 36 34 c40 37 46 68 21 117 -21 40 -50 49 -156 49 l-89 0 0
-155z m201 89 c19 -21 20 -26 9 -54 -15 -35 -35 -42 -111 -38 -53 3 -54 3 -57
37 -5 52 5 79 31 83 52 7 106 -4 128 -28z"/>
<path d="M3610 2485 l0 -155 115 0 c108 0 115 1 115 20 0 19 -7 20 -90 20
l-90 0 0 50 0 50 80 0 c73 0 80 2 80 20 0 18 -7 20 -80 20 l-80 0 0 45 0 45
73 2 c39 1 80 2 90 1 10 0 17 8 17 19 0 16 -10 18 -115 18 l-115 0 0 -155z"/>
<path d="M4054 2608 c-18 -35 -124 -270 -124 -275 0 -2 10 -3 23 -3 16 0 26
10 39 40 l17 40 80 0 81 0 16 -40 c13 -31 21 -40 41 -40 31 0 30 2 -50 178
-52 114 -63 132 -83 132 -16 0 -29 -10 -40 -32z m76 -96 l29 -62 -64 0 c-36 0
-65 2 -65 4 0 2 8 23 19 47 10 24 21 52 25 62 10 29 24 17 56 -51z"/>
<path d="M4360 2485 l0 -155 115 0 c108 0 115 1 115 20 0 19 -7 20 -90 20
l-90 0 0 135 0 135 -25 0 -25 0 0 -155z"/>
<path d="M4860 2485 l0 -155 120 0 c113 0 120 1 120 20 0 19 -7 20 -95 20
l-95 0 0 50 0 50 85 0 c78 0 85 2 85 20 0 18 -7 20 -85 20 l-85 0 0 45 0 45
63 2 c34 1 74 2 90 2 19 1 27 6 27 18 0 16 -12 18 -115 18 l-115 0 0 -155z"/>
<path d="M5542 2623 c2 -14 15 -19 56 -21 l52 -3 0 -135 0 -134 25 0 25 0 0
135 0 135 50 0 c43 0 50 3 50 20 0 19 -7 20 -131 20 -119 0 -130 -2 -127 -17z"/>
<path d="M5971 2618 c-5 -13 -26 -59 -46 -103 -20 -44 -48 -104 -61 -132 l-23
-53 23 0 c17 0 28 10 41 40 l18 40 82 0 82 0 19 -40 c14 -29 25 -40 42 -40 12
0 22 2 22 4 0 2 -20 46 -44 97 -24 52 -55 120 -69 152 -22 48 -30 57 -52 57
-17 0 -28 -7 -34 -22z m69 -94 c17 -36 30 -69 30 -72 0 -4 -29 -6 -64 -4 l-64
4 14 34 c8 19 21 50 28 69 8 19 18 35 21 35 3 0 19 -30 35 -66z"/>
<path d="M6210 2620 c0 -18 7 -20 55 -20 l55 0 0 -135 c0 -135 0 -135 23 -135
l24 0 -5 135 -5 135 57 0 c49 0 56 2 56 20 0 19 -7 20 -130 20 -123 0 -130 -1
-130 -20z"/>
<path d="M6580 2485 l0 -155 116 0 c105 0 115 2 112 18 -3 14 -17 17 -96 20
l-92 3 0 49 0 50 80 0 c73 0 80 2 80 20 0 18 -7 20 -80 20 l-80 0 0 45 0 45
89 0 c80 0 89 2 94 20 5 19 0 20 -109 20 l-114 0 0 -155z"/>
</g>
</svg>
