<?xml version="1.0" standalone="no"?>
<!DOCTYPE svg PUBLIC "-//W3C//DTD SVG 20010904//EN"
 "http://www.w3.org/TR/2001/REC-SVG-20010904/DTD/svg10.dtd">
<svg version="1.0" xmlns="http://www.w3.org/2000/svg"
 width="1024.000000pt" height="1024.000000pt" viewBox="0 0 1024.000000 1024.000000"
 preserveAspectRatio="xMidYMid meet">

<g transform="translate(0.000000,1024.000000) scale(0.100000,-0.100000)"
fill="#000000" stroke="none">
<path d="M4844 7142 c-148 -97 -390 -258 -539 -357 l-270 -180 -3 -167 -2
-168 317 2 318 3 -312 2 c-319 3 -328 5 -305 39 10 16 143 107 645 440 l428
284 67 -43 c37 -24 120 -77 185 -118 65 -41 181 -114 257 -162 l140 -88 47 32
c27 18 74 52 105 75 l58 42 -38 23 c-77 47 -651 404 -738 459 l-91 58 -269
-176z"/>
<path d="M6008 6707 c-98 -67 -177 -125 -178 -129 0 -4 23 -19 50 -33 28 -14
50 -21 50 -16 0 5 -18 16 -41 25 -22 9 -37 21 -34 26 6 10 98 75 258 183 64
43 72 46 79 30 42 -106 75 -187 117 -288 27 -66 48 -121 46 -123 -2 -2 -45 17
-95 43 -51 25 -93 45 -94 43 -7 -10 -56 -134 -56 -140 0 -4 -13 -36 -29 -70
-15 -35 -72 -169 -126 -298 -53 -129 -121 -291 -149 -360 l-52 -124 -116 -2
c-80 -2 -120 1 -126 9 -5 7 -37 75 -70 152 -33 77 -95 214 -137 305 -42 91
-108 237 -147 325 -39 88 -75 164 -79 169 -20 22 -3 26 110 26 125 0 132 -2
146 -50 4 -14 17 -45 28 -70 20 -45 149 -345 212 -493 31 -75 45 -100 45 -81
0 5 -67 164 -148 354 l-148 345 -136 3 -136 3 93 -208 c51 -115 129 -288 173
-385 44 -97 104 -231 133 -297 l52 -122 130 3 130 3 33 80 c18 44 108 259 199
478 91 219 165 402 165 407 0 23 27 17 120 -30 55 -27 100 -48 100 -46 0 2
-25 67 -56 143 -31 76 -71 175 -89 219 -18 45 -37 89 -41 97 -7 13 -42 -7
-186 -106z"/>
<path d="M5941 6522 c-1 -12 -129 -329 -257 -633 -24 -59 -44 -111 -44 -115 1
-18 34 53 99 215 37 91 100 244 140 339 40 95 70 180 68 190 -3 10 -5 11 -6 4z"/>
<path d="M4618 6460 l303 -5 40 -72 40 -71 -108 -118 c-60 -65 -190 -206 -290
-313 -101 -106 -183 -200 -183 -207 0 -11 60 -13 333 -13 l332 1 3 -91 c1 -50
-1 -91 -5 -91 -22 0 -960 -1 -974 0 -13 0 -15 13 -14 80 l2 79 209 223 c254
270 323 345 348 378 30 39 -90 -85 -328 -340 -121 -129 -225 -239 -233 -243
-9 -6 -13 -34 -13 -102 l0 -95 510 0 510 0 0 110 0 110 -336 0 -336 0 158 168
c139 145 349 373 407 439 19 21 19 22 -23 102 l-42 81 -307 -2 -306 -3 303 -5z"/>
<path d="M3190 4880 l0 -70 170 0 169 0 -26 -27 c-29 -31 -226 -261 -291 -339
-39 -46 -42 -55 -42 -107 l0 -57 285 0 285 0 0 64 0 64 -185 -4 c-111 -3 -185
-1 -185 5 0 5 20 31 43 57 24 27 105 120 180 208 l137 158 0 59 0 59 -270 0
-270 0 0 -70z"/>
<path d="M3770 4946 c0 -3 61 -144 136 -313 75 -169 140 -318 145 -330 8 -21
15 -23 86 -23 l78 0 115 261 c63 144 129 294 147 335 l32 74 -78 0 c-51 0 -82
-4 -88 -12 -5 -7 -52 -115 -104 -240 -85 -207 -108 -252 -109 -215 0 6 -44
113 -98 237 l-97 225 -82 3 c-46 2 -83 1 -83 -2z"/>
<path d="M4868 4615 l-3 -335 248 0 247 0 0 63 0 62 -172 0 -173 0 -3 273 -2
272 -70 0 -69 0 -3 -335z"/>
<path d="M5470 4948 c0 -2 -1 -153 -3 -336 l-2 -332 73 0 72 0 0 335 0 335
-70 0 c-38 0 -70 -1 -70 -2z"/>
<path d="M5760 4615 l0 -335 70 0 70 0 0 206 c0 125 4 204 9 202 9 -3 223
-257 309 -366 33 -42 34 -42 98 -42 l64 0 -2 333 -3 332 -72 3 -73 3 0 -211 0
-210 -83 102 c-45 57 -123 151 -172 211 l-90 107 -62 0 -63 0 0 -335z"/>
<path d="M6520 4615 l0 -335 265 0 265 0 0 65 0 65 -190 -6 -190 -7 0 82 0 81
160 0 160 0 0 60 0 60 -160 0 -160 0 0 68 0 67 185 -3 185 -3 0 71 0 70 -260
0 -260 0 0 -335z"/>
<path d="M3670 3961 c0 -124 1 -131 20 -131 17 0 20 7 20 50 0 46 2 50 25 50
15 0 31 -10 42 -26 40 -57 60 -76 76 -73 14 3 12 11 -14 52 l-31 47 26 21 c20
16 26 29 26 58 0 57 -26 75 -116 79 l-74 4 0 -131z m138 77 c7 -7 12 -21 12
-33 0 -32 -20 -45 -67 -45 l-43 0 0 45 0 45 43 0 c24 0 48 -5 55 -12z"/>
<path d="M3975 3960 l0 -130 88 0 c80 0 87 2 87 20 0 18 -7 20 -70 20 l-70 0
0 35 0 34 58 3 c43 2 57 7 57 18 0 11 -14 16 -57 18 l-58 3 0 34 0 35 70 0
c63 0 70 2 70 20 0 18 -7 20 -87 20 l-88 0 0 -130z"/>
<path d="M4341 4068 c-5 -13 -27 -69 -50 -126 -23 -56 -41 -105 -41 -107 0 -3
9 -5 20 -5 13 0 25 12 34 35 14 34 17 35 68 35 53 0 54 -1 67 -35 8 -24 19
-35 32 -35 10 0 19 3 19 8 0 4 -21 61 -48 127 -39 99 -51 121 -70 123 -15 2
-25 -3 -31 -20z m43 -60 c31 -75 31 -78 -7 -78 -18 0 -36 2 -39 6 -5 5 23 104
30 104 2 0 9 -15 16 -32z"/>
<path d="M4590 3960 l0 -130 80 0 c73 0 80 2 80 20 0 18 -7 20 -60 20 l-60 0
0 110 c0 103 -1 110 -20 110 -19 0 -20 -7 -20 -130z"/>
<path d="M5030 3960 l0 -130 90 0 c83 0 90 1 90 20 0 18 -7 20 -70 20 l-70 0
0 35 0 35 55 0 c48 0 55 2 55 20 0 18 -7 20 -55 20 l-55 0 0 35 0 35 65 0 c58
0 65 2 65 20 0 18 -7 20 -85 20 l-85 0 0 -130z"/>
<path d="M5335 4065 c-47 -46 -23 -104 52 -124 52 -15 66 -25 61 -47 -3 -16
-12 -19 -53 -19 -28 1 -58 5 -67 9 -14 6 -18 4 -18 -9 0 -28 31 -44 88 -45 61
0 92 23 92 68 0 41 -18 59 -80 79 -42 14 -56 23 -58 40 -5 33 36 41 107 22 28
-8 24 30 -4 41 -47 18 -94 12 -120 -15z"/>
<path d="M5563 4070 c-2 -17 4 -20 43 -20 l45 0 -3 -110 c-3 -99 -1 -110 15
-110 13 0 17 10 19 48 1 26 2 58 3 72 1 14 2 42 3 63 2 36 3 37 42 37 33 0 40
3 40 20 0 19 -7 20 -103 20 -96 0 -103 -1 -104 -20z"/>
<path d="M5865 3973 c-26 -65 -49 -124 -52 -130 -3 -8 3 -13 16 -13 16 0 26
10 37 36 14 34 16 35 67 32 48 -3 53 -6 66 -35 10 -23 21 -33 37 -33 21 0 20
4 -29 130 -44 110 -55 130 -74 130 -18 0 -28 -18 -68 -117z m99 -14 c6 -13 0
-18 -31 -21 -21 -3 -39 -4 -41 -3 -1 1 4 17 11 36 8 19 17 43 21 54 7 18 9 16
20 -15 8 -19 16 -42 20 -51z"/>
<path d="M6090 4070 c0 -17 7 -20 40 -20 l40 0 0 -110 c0 -103 1 -110 20 -110
19 0 20 7 20 110 l0 110 45 0 c38 0 45 3 45 20 0 19 -7 20 -105 20 -98 0 -105
-1 -105 -20z"/>
<path d="M6390 3960 l0 -130 90 0 c83 0 90 1 90 20 0 18 -7 20 -70 20 l-70 0
0 35 0 35 55 0 c48 0 55 2 55 20 0 18 -7 20 -55 20 l-55 0 0 35 0 35 64 0 c55
0 64 3 69 20 5 19 0 20 -84 20 l-89 0 0 -130z"/>
</g>
</svg>
